<?xml version="1.0" encoding="UTF-8" standalone="no"?>
<!DOCTYPE svg PUBLIC "-//W3C//DTD SVG 1.1//EN" "http://www.w3.org/Graphics/SVG/1.1/DTD/svg11.dtd">
<svg width="100%" height="100%" viewBox="0 0 650 650" version="1.1" xmlns="http://www.w3.org/2000/svg"
     xml:space="preserve"
     style="fill-rule:evenodd;clip-rule:evenodd;stroke-linejoin:round;stroke-miterlimit:2;">
    <g transform="matrix(2.13591,0,0,2.13275,-1164.5,-582.678)">
        <g id="_x38_MVMkz_1_">
            <g>
                <path
                  d="M545.2,565.6C545.3,560.3 548.3,557 551.5,553.7C576.7,528.5 601.9,503.3 627.1,478.1C650.9,454.3 674.7,430.5 698.5,406.8C701.2,404.1 702.2,401.5 701.5,397.5C699.2,384 697.5,370.5 695.4,357C694.9,353.9 696.3,351.9 698.2,350C707.7,340.5 717.3,331 726.8,321.4C741.5,306.7 756.2,292 770.9,277.3C771.6,276.6 772.2,275.8 773,275.2C774,274.4 774.7,272.8 776.2,273.3C777.8,273.8 777.4,275.5 777.6,276.8C780.3,294.7 783,312.7 785.5,330.7C786.1,334.9 787.7,336.7 792,337.3C809.8,339.7 827.6,342.5 845.4,345.1C846.8,345.3 848.8,344.9 849.4,346.6C850,348.3 848.2,349.2 847.2,350.2C822.5,374.9 797.7,399.6 773,424.4C770.5,426.9 768.1,427.7 764.6,427.2C751,425 737.3,423.2 723.6,421.1C720.2,420.6 718.3,422.1 716.2,424.2C689.6,450.8 663,477.5 636.4,504.1C613.2,527.3 590,550.5 566.8,573.7C563.2,577.3 559.1,578.9 554.1,577.4C549.7,576 546.5,573.2 545.5,568.5C545.3,567.3 545.3,566.3 545.2,565.6Z"
                  style="fill:white;fill-rule:nonzero;"/>
            </g>
        </g>
    </g>
</svg>
