<?xml version="1.0" encoding="utf-8"?>
<!-- Generator: Adobe Illustrator 24.0.0, SVG Export Plug-In . SVG Version: 6.00 Build 0)  -->
<svg version="1.1" id="Laag_1" xmlns="http://www.w3.org/2000/svg" x="0px" y="0px"
	 viewBox="0 0 1133.9 1133.9" style="enable-background:new 0 0 1133.9 1133.9;" xml:space="preserve">
	<g id="_x38_MVMkz_1_">
	<g>
		<path style="fill:#FFFFFF;" d="M246,564.8c0.6-74.2,24-140.4,71.2-197.6c43.9-53.2,99.7-88.7,167-104.4c87.3-20.4,169-6,244.5,42.6
			c5.2,3.3,5.1,3.4,0.7,7.8c-7.8,7.8-15.6,15.5-23.3,23.4c-2.6,2.7-4.7,3.3-8.1,1.1c-35.6-22.2-74.3-35.2-116-38.8
			c-56.5-4.9-109.7,6.4-158.9,35.1c-47.6,27.8-83.3,66.5-107.2,116.1c-15.1,31.3-23.4,64.3-25.4,99.1
			c-3.3,57.5,10.2,110.8,40.9,159.4c21.3,33.7,49,61.2,82.7,82.7c33.4,21.4,69.8,34.4,109.1,39.5c48.7,6.2,95.8-0.1,140.8-19.8
			c60.8-26.7,105.9-70.3,135-129.9c15.5-31.8,23.8-65.6,25.7-101c2.7-51.8-8.6-100.2-33.6-145.5c-1.9-3.5-3.8-7-6.2-10.3
			c-2-2.8-1.4-4.6,0.9-6.8c8.4-8.1,16.6-16.3,24.8-24.7c2.8-2.9,4.3-3,6.7,0.6c25.7,38.7,41.9,81,48.5,126.8
			c8.6,59.1,1,116.3-23.1,171c-18.8,42.6-45.9,79.1-81.1,109.6c-34.8,30.2-74.3,51.5-118.6,64.2c-35.6,10.2-71.9,13.6-108.8,10.9
			c-51-3.8-98.5-18.8-141.5-46.4C313.9,779,266.2,707.6,250,615.5C247.1,598.8,245.6,581.9,246,564.8z"/>
		<path style="fill:#FFFFFF;" d="M379.6,563.7c0,77.1,46.7,143.5,117.7,169.2c92,33.3,195.7-15.3,227.5-107.9c20.5-59.7,11.5-115.9-25.8-167.2
			c-4.5-6.2-4.6-6.1,0.9-11.6c5.8-5.8,11.5-11.6,17.3-17.3c5.2-5.2,11-4.9,15.6,1c23.8,30.7,38.4,65.3,44,103.7
			c6.7,46.1,0,90.3-21.4,131.5c-34.2,65.9-88.3,106.6-161.6,118.9c-68.8,11.6-130.5-6.5-183.3-52.6c-39.1-34.1-63.3-77.2-71.6-128.3
			c-11.3-69.6,6.2-131.6,52.8-184.7c36.2-41.2,82.1-65.3,136.3-72.7c47.1-6.4,91.9,2,134,24.2c10.9,5.8,21.2,12.5,31,20.1
			c5.9,4.6,6.3,10.3,1,15.6c-6.5,6.5-13.1,12.9-19.4,19.5c-2.6,2.8-4.5,2.7-7.4,0.4c-24.7-19.5-52.7-31.7-84-36
			c-51-6.9-97.1,5.1-137.2,37.4c-36.8,29.6-58.3,68.2-65,115.1C379.9,549.5,379.2,557.4,379.6,563.7z"/>
		<path style="fill:#FFFFFF;" d="M469.3,565.4c0.1,44.4,32.1,81.7,76,87.3c57.5,7.3,100.2-37.7,100.1-86.2c0-16.6-3.8-32-12.2-46.2
			c-2.1-3.5-2-5.7,1-8.6c8.1-7.7,15.9-15.7,23.7-23.7c2.8-2.9,4.4-3,6.9,0.5c41,56.1,29.6,137.6-25.3,180.2
			c-46.8,36.3-109.1,38.7-157,5.3c-33.2-23.2-52.2-55.3-56.5-95.8c-7.1-67.2,39.4-129.7,106-142.5c37.1-7.1,71.1,0.6,102.1,22.2
			c3.2,2.2,3.9,3.8,0.8,6.9c-8.3,8-16.4,16.1-24.4,24.4c-2.5,2.5-4.3,2.5-7.3,0.8c-34.1-19.7-72.5-17-102.6,8
			C479.7,515.3,469.4,538.1,469.3,565.4z"/>
		<path style="fill:#FFFFFF;" d="M545.2,565.6c0.1-5.3,3.1-8.6,6.3-11.9c25.2-25.2,50.4-50.4,75.6-75.6c23.8-23.8,47.6-47.6,71.4-71.3
			c2.7-2.7,3.7-5.3,3-9.3c-2.3-13.5-4-27-6.1-40.5c-0.5-3.1,0.9-5.1,2.8-7c9.5-9.5,19.1-19,28.6-28.6c14.7-14.7,29.4-29.4,44.1-44.1
			c0.7-0.7,1.3-1.5,2.1-2.1c1-0.8,1.7-2.4,3.2-1.9c1.6,0.5,1.2,2.2,1.4,3.5c2.7,17.9,5.4,35.9,7.9,53.9c0.6,4.2,2.2,6,6.5,6.6
			c17.8,2.4,35.6,5.2,53.4,7.8c1.4,0.2,3.4-0.2,4,1.5c0.6,1.7-1.2,2.6-2.2,3.6c-24.7,24.7-49.5,49.4-74.2,74.2
			c-2.5,2.5-4.9,3.3-8.4,2.8c-13.6-2.2-27.3-4-41-6.1c-3.4-0.5-5.3,1-7.4,3.1c-26.6,26.6-53.2,53.3-79.8,79.9
			c-23.2,23.2-46.4,46.4-69.6,69.6c-3.6,3.6-7.7,5.2-12.7,3.7c-4.4-1.4-7.6-4.2-8.6-8.9C545.3,567.3,545.3,566.3,545.2,565.6z"/>
		<path style="fill:#E41D17;" d="M557.8,523c3.5,0.1,7,0,10.4,1.1c4.3,1.4,4.7,2.4,1.5,5.6c-7.6,7.7-15.1,15.5-22.8,23.1
			c-8.1,8-6.9,21.4,2.6,26.9c6.4,3.7,14.8,2,20.5-3.8c7.5-7.7,15.2-15.2,22.9-22.7c3.5-3.4,4.6-3,5.7,1.7
			c3.9,17.1-0.6,31.7-13.9,43.1c-15.2,13.1-33.4,12.3-48.9,4.6c-5.6-2.8-10.1-8.1-13.8-13.5c-9.6-14.1-9.7-29.1-2.1-43.5
			C527.8,530.7,540.6,522.8,557.8,523z"/>
	</g>
</g>
</svg>
